<svg xmlns:xlink="http://www.w3.org/1999/xlink" xmlns="http://www.w3.org/2000/svg" width="24" height="24" viewBox="0 0 24 24" class="text-indigo-500" data-icon="fluent:people-community-24-regular"><defs><symbol id="ai:fluent:people-community-24-regular"><path fill="#6366F1" d="M7.5 3.5a1.5 1.5 0 1 0 0 3a1.5 1.5 0 0 0 0-3M4.5 5a3 3 0 1 1 6 0a3 3 0 0 1-6 0m-.732 4C2.79 9 2 9.791 2 10.768v.36c0 .207 0 1.408.7 2.575c.548.91 1.477 1.727 2.975 2.093a2.777 2.777 0 0 1 1.062-1.335c-1.603-.171-2.361-.883-2.75-1.53c-.484-.806-.487-1.664-.487-1.806v-.357c0-.148.12-.268.268-.268H8.03A3.974 3.974 0 0 1 8.535 9zm11.697 0c.261.452.437.959.504 1.5h4.263c.148 0 .268.12.268.268v.357c0 .142-.003 1-.487 1.805c-.389.648-1.147 1.36-2.75 1.531c.48.32.856.786 1.062 1.335c1.498-.366 2.427-1.183 2.974-2.093c.701-1.167.701-2.367.701-2.576v-.36C22 9.792 21.209 9 20.232 9zM15 5a1.5 1.5 0 1 1 3 0a1.5 1.5 0 0 1-3 0m1.5-3a3 3 0 1 0 0 6a3 3 0 0 0 0-6M12 9.5a1.5 1.5 0 1 0 0 3a1.5 1.5 0 0 0 0-3M9 11a3 3 0 1 1 6 0a3 3 0 0 1-6 0m-2.5 5.768C6.5 15.79 7.291 15 8.268 15h7.464c.977 0 1.768.791 1.768 1.768v.36c0 .207 0 1.408-.7 2.575C16.057 20.937 14.613 22 12 22s-4.058-1.063-4.8-2.297c-.7-1.167-.7-2.367-.7-2.576zm1.768-.268a.268.268 0 0 0-.268.268v.357c0 .142.003 1 .487 1.805c.446.743 1.377 1.57 3.513 1.57s3.067-.827 3.513-1.57c.484-.805.487-1.663.487-1.805v-.357a.268.268 0 0 0-.268-.268z"></path></symbol></defs> <symbol id="ai:fluent:people-community-24-regular"><path fill="#6366F1" d="M7.5 3.5a1.5 1.5 0 1 0 0 3a1.5 1.5 0 0 0 0-3M4.5 5a3 3 0 1 1 6 0a3 3 0 0 1-6 0m-.732 4C2.79 9 2 9.791 2 10.768v.36c0 .207 0 1.408.7 2.575c.548.91 1.477 1.727 2.975 2.093a2.777 2.777 0 0 1 1.062-1.335c-1.603-.171-2.361-.883-2.75-1.53c-.484-.806-.487-1.664-.487-1.806v-.357c0-.148.12-.268.268-.268H8.03A3.974 3.974 0 0 1 8.535 9zm11.697 0c.261.452.437.959.504 1.5h4.263c.148 0 .268.12.268.268v.357c0 .142-.003 1-.487 1.805c-.389.648-1.147 1.36-2.75 1.531c.48.32.856.786 1.062 1.335c1.498-.366 2.427-1.183 2.974-2.093c.701-1.167.701-2.367.701-2.576v-.36C22 9.792 21.209 9 20.232 9zM15 5a1.5 1.5 0 1 1 3 0a1.5 1.5 0 0 1-3 0m1.5-3a3 3 0 1 0 0 6a3 3 0 0 0 0-6M12 9.5a1.5 1.5 0 1 0 0 3a1.5 1.5 0 0 0 0-3M9 11a3 3 0 1 1 6 0a3 3 0 0 1-6 0m-2.5 5.768C6.5 15.79 7.291 15 8.268 15h7.464c.977 0 1.768.791 1.768 1.768v.36c0 .207 0 1.408-.7 2.575C16.057 20.937 14.613 22 12 22s-4.058-1.063-4.8-2.297c-.7-1.167-.7-2.367-.7-2.576zm1.768-.268a.268.268 0 0 0-.268.268v.357c0 .142.003 1 .487 1.805c.446.743 1.377 1.57 3.513 1.57s3.067-.827 3.513-1.57c.484-.805.487-1.663.487-1.805v-.357a.268.268 0 0 0-.268-.268z"></path></symbol> <use xlink:href="#ai:fluent:people-community-24-regular"></use> </svg>